<svg width="48" height="48" viewBox="0 0 48 48" fill="none" xmlns="http://www.w3.org/2000/svg">
<g clip-path="url(#clip0_491_6014)">
<path d="M13.7998 15.4002V32.0002H15.5998C15.7998 32.0002 15.8998 32.0002 15.9998 32.1002C16.0998 32.2002 16.0998 32.3002 16.0998 32.5002V33.2002H12.2998V14.2002H16.0998V14.9002C16.0998 15.0002 16.0998 15.2002 15.9998 15.2002C15.8998 15.3002 15.7998 15.3002 15.5998 15.3002H13.7998V15.4002Z" fill="#231F20"/>
<path d="M17.8999 29.0002C17.8999 28.8002 17.8999 28.6002 17.9999 28.5002C18.0999 28.3002 18.1999 28.2002 18.2999 28.1002C18.3999 28.0002 18.5999 27.9002 18.6999 27.8002C18.7999 27.7002 18.9999 27.7002 19.1999 27.7002C19.3999 27.7002 19.5999 27.7002 19.6999 27.8002C19.8999 27.9002 19.9999 28.0002 20.0999 28.1002C20.1999 28.2002 20.2999 28.4002 20.3999 28.5002C20.4999 28.7002 20.4999 28.8002 20.4999 29.0002C20.4999 29.2002 20.4999 29.4002 20.3999 29.5002C20.2999 29.7002 20.1999 29.8002 20.0999 29.9002C19.9999 30.0002 19.7999 30.1002 19.6999 30.2002C19.4999 30.3002 19.3999 30.3002 19.1999 30.3002C18.9999 30.3002 18.7999 30.3002 18.6999 30.2002C18.4999 30.1002 18.3999 30.0002 18.2999 29.9002C18.1999 29.8002 18.0999 29.6002 17.9999 29.5002C17.8999 29.4002 17.8999 29.2002 17.8999 29.0002Z" fill="#231F20"/>
<path d="M22.7998 29.0002C22.7998 28.8002 22.7998 28.6002 22.8998 28.5002C22.9998 28.3002 23.0998 28.2002 23.1998 28.1002C23.2998 28.0002 23.4998 27.9002 23.5998 27.8002C23.6998 27.7002 23.8998 27.7002 24.0998 27.7002C24.2998 27.7002 24.4998 27.7002 24.5998 27.8002C24.7998 27.9002 24.8998 28.0002 24.9998 28.1002C25.0998 28.2002 25.1998 28.4002 25.2998 28.5002C25.3998 28.7002 25.3998 28.8002 25.3998 29.0002C25.3998 29.2002 25.3998 29.4002 25.2998 29.5002C25.1998 29.7002 25.0998 29.8002 24.9998 29.9002C24.8998 30.0002 24.6998 30.1002 24.5998 30.2002C24.3998 30.3002 24.2998 30.3002 24.0998 30.3002C23.8998 30.3002 23.6998 30.3002 23.5998 30.2002C23.3998 30.1002 23.2998 30.0002 23.1998 29.9002C23.0998 29.8002 22.9998 29.6002 22.8998 29.5002C22.7998 29.4002 22.7998 29.2002 22.7998 29.0002Z" fill="#231F20"/>
<path d="M27.6997 29.0002C27.6997 28.8002 27.6997 28.6002 27.7997 28.5002C27.8997 28.3002 27.9997 28.2002 28.0997 28.1002C28.1997 28.0002 28.3997 27.9002 28.4997 27.8002C28.5997 27.7002 28.7997 27.7002 28.9997 27.7002C29.1997 27.7002 29.3997 27.7002 29.4997 27.8002C29.6997 27.9002 29.7997 28.0002 29.8997 28.1002C29.9997 28.2002 30.0997 28.4002 30.1997 28.5002C30.2997 28.7002 30.2997 28.8002 30.2997 29.0002C30.2997 29.2002 30.2997 29.4002 30.1997 29.5002C30.0997 29.7002 29.9997 29.8002 29.8997 29.9002C29.7997 30.0002 29.5997 30.1002 29.4997 30.2002C29.2997 30.3002 29.1997 30.3002 28.9997 30.3002C28.7997 30.3002 28.5997 30.3002 28.4997 30.2002C28.2997 30.1002 28.1997 30.0002 28.0997 29.9002C27.9997 29.8002 27.8997 29.6002 27.7997 29.5002C27.7997 29.4002 27.6997 29.2002 27.6997 29.0002Z" fill="#231F20"/>
<path d="M35.9997 33.2003H32.1997V32.5003C32.1997 32.4003 32.1997 32.2003 32.2997 32.1003C32.3997 32.0003 32.4997 32.0003 32.6997 32.0003H34.4997V15.4003H32.6997C32.4997 15.4003 32.3997 15.4003 32.2997 15.3003C32.1997 15.2003 32.1997 15.1003 32.1997 15.0003V14.3003H35.9997V33.2003Z" fill="#231F20"/>
<path d="M37.5998 0H31.4998H30.5998H10.3998C8.0998 0 6.2998 1.9 6.2998 4.2V20.5V43.9C6.2998 46.2 8.1998 48.1 10.4998 48.1H37.5998C39.8998 48.1 41.7998 46.2 41.7998 43.9V20.4V4.2C41.6998 1.9 39.8998 0 37.5998 0ZM39.6998 43.8C39.6998 45 38.7998 45.9 37.5998 45.9H10.3998C9.2998 45.9 8.2998 45 8.2998 43.8V20.4V4.2C8.2998 3.1 9.1998 2.1 10.3998 2.1H30.4998H31.3998H37.4998C38.5998 2.1 39.5998 3 39.5998 4.2V20.5V43.8H39.6998Z" fill="black"/>
</g>
<defs>
<clipPath id="clip0_491_6014">
<rect width="48" height="48" fill="white"/>
</clipPath>
</defs>
</svg>
