<svg width="48" height="48" viewBox="0 0 48 48" fill="none" xmlns="http://www.w3.org/2000/svg">
<path d="M9.5998 26.7001C9.5998 26.2001 9.4998 25.8001 9.2998 25.5001C9.0998 25.2001 8.7998 25.1001 8.2998 25.1001V23.0001C8.4998 23.0001 8.6998 23.0001 8.8998 22.9001C9.0998 22.8001 9.1998 22.7001 9.2998 22.6001C9.3998 22.5001 9.4998 22.3001 9.4998 22.1001C9.4998 21.9001 9.5998 21.7001 9.5998 21.5001C9.5998 21.1001 9.5998 20.8001 9.4998 20.4001C9.4998 20.0001 9.3998 19.7001 9.2998 19.3001C9.1998 18.9001 9.1998 18.6001 9.0998 18.2001C8.9998 17.8001 9.1998 17.3001 9.1998 17.0001C9.1998 16.3001 9.2998 15.8001 9.4998 15.2001C9.6998 14.7001 9.9998 14.2001 10.3998 13.8001C10.7998 13.4001 11.2998 13.1001 11.8998 12.9001C12.4998 12.7001 13.1998 12.6001 14.0998 12.6001H14.6998V14.2001C14.6998 14.3001 14.6998 14.4001 14.5998 14.5001C14.4998 14.6001 14.4998 14.7001 14.3998 14.7001C14.2998 14.8001 14.1998 14.8001 14.0998 14.8001C13.9998 14.8001 13.8998 14.8001 13.8998 14.8001C13.3998 14.8001 12.9998 15.0001 12.7998 15.3001C12.5998 15.6001 12.3998 16.1001 12.3998 16.6001C12.3998 17.0001 12.3998 17.5001 12.4998 17.9001C12.4998 18.3001 12.5998 18.7001 12.5998 19.0001C12.5998 19.4001 12.6998 19.7001 12.6998 20.1001C12.6998 20.5001 12.7998 20.8001 12.7998 21.2001C12.7998 21.5001 12.7998 21.8001 12.6998 22.1001C12.5998 22.4001 12.4998 22.6001 12.2998 22.9001C12.0998 23.1001 11.8998 23.3001 11.6998 23.5001C11.4998 23.7001 11.1998 23.8001 10.8998 23.9001C11.1998 24.0001 11.4998 24.1001 11.6998 24.3001C11.8998 24.5001 12.0998 24.7001 12.2998 24.9001C12.4998 25.1001 12.5998 25.4001 12.6998 25.7001C12.7998 26.0001 12.7998 26.3001 12.7998 26.6001C12.7998 27.0001 12.7998 27.3001 12.6998 27.7001C12.6998 28.1001 12.5998 28.4001 12.5998 28.8001C12.5998 29.2001 12.4998 29.5001 12.4998 29.9001C12.4998 30.3001 12.3998 30.7001 12.3998 31.2001C12.3998 31.8001 12.4998 32.2001 12.7998 32.5001C12.9998 32.8001 13.3998 33.0001 13.8998 33.0001C13.9998 33.0001 13.9998 33.0001 14.0998 33.0001C14.1998 33.0001 14.2998 33.1001 14.3998 33.1001C14.4998 33.2001 14.4998 33.2001 14.5998 33.3001C14.6998 33.4001 14.6998 33.5001 14.6998 33.6001V35.2001H14.0998C13.1998 35.2001 12.4998 35.1001 11.8998 34.9001C11.2998 34.7001 10.7998 34.4001 10.3998 34.0001C9.9998 33.6001 9.6998 33.2001 9.4998 32.6001C9.2998 32.0001 9.1998 31.7001 9.1998 31.0001C9.1998 30.6001 9.1998 30.3001 9.2998 29.9001C9.3998 29.5001 9.3998 29.2001 9.4998 28.8001C9.5998 28.4001 9.5998 28.1001 9.6998 27.7001C9.5998 27.4001 9.5998 27.0001 9.5998 26.7001Z" fill="#231F20"/>
<path d="M16.1997 29.6C16.1997 29.3 16.2997 29 16.3997 28.8C16.4997 28.6 16.6997 28.3 16.7997 28.1C16.8997 27.9 17.1997 27.8 17.4997 27.7C17.7997 27.6 17.9997 27.5 18.2997 27.5C18.5997 27.5 18.8997 27.6 19.0997 27.7C19.3997 27.8 19.5997 28 19.7997 28.1C19.9997 28.3 20.0997 28.5 20.2997 28.8C20.3997 29 20.4997 29.3 20.4997 29.6C20.4997 29.9 20.3997 30.2 20.2997 30.4C20.1997 30.7 19.9997 30.9 19.7997 31.1C19.5997 31.3 19.3997 31.4 19.0997 31.5C18.7997 31.6 18.5997 31.7 18.2997 31.7C17.9997 31.7 17.6997 31.6 17.4997 31.5C17.1997 31.4 16.9997 31.3 16.7997 31.1C16.5997 30.9 16.4997 30.7 16.3997 30.4C16.1997 30.1 16.1997 29.9 16.1997 29.6Z" fill="#231F20"/>
<path d="M21.8999 29.6C21.8999 29.3 21.9999 29 22.0999 28.8C22.1999 28.6 22.3999 28.3 22.4999 28.1C22.5999 27.9 22.8999 27.8 23.1999 27.7C23.4999 27.6 23.6999 27.5 23.9999 27.5C24.2999 27.5 24.5999 27.6 24.7999 27.7C25.0999 27.8 25.2999 28 25.4999 28.1C25.6999 28.3 25.7999 28.5 25.9999 28.8C26.0999 29 26.1999 29.3 26.1999 29.6C26.1999 29.9 26.0999 30.2 25.9999 30.4C25.8999 30.7 25.6999 30.9 25.4999 31.1C25.2999 31.3 25.0999 31.4 24.7999 31.5C24.4999 31.6 24.2999 31.7 23.9999 31.7C23.6999 31.7 23.3999 31.6 23.1999 31.5C22.8999 31.4 22.6999 31.3 22.4999 31.1C22.2999 30.9 22.1999 30.7 22.0999 30.4C21.8999 30.1 21.8999 29.9 21.8999 29.6Z" fill="#231F20"/>
<path d="M27.5996 29.6C27.5996 29.3 27.6996 29 27.7996 28.8C27.8996 28.6 28.0996 28.3 28.1996 28.1C28.2996 27.9 28.5996 27.8 28.8996 27.7C29.1996 27.6 29.3996 27.5 29.6996 27.5C29.9996 27.5 30.2996 27.6 30.4996 27.7C30.7996 27.8 30.9996 28 31.1996 28.1C31.3996 28.3 31.4996 28.5 31.6996 28.8C31.7996 29 31.8996 29.3 31.8996 29.6C31.8996 29.9 31.7996 30.2 31.6996 30.4C31.5996 30.7 31.3996 30.9 31.1996 31.1C30.9996 31.3 30.7996 31.4 30.4996 31.5C30.1996 31.6 29.9996 31.7 29.6996 31.7C29.3996 31.7 29.0996 31.6 28.8996 31.5C28.5996 31.4 28.3996 31.3 28.1996 31.1C27.9996 30.9 27.8996 30.7 27.7996 30.4C27.5996 30.1 27.5996 29.9 27.5996 29.6Z" fill="#231F20"/>
<path d="M38.4 26.6999C38.4 27.0999 38.4 27.3999 38.5 27.7999C38.5 28.1999 38.6 28.4999 38.7 28.8999C38.8 29.2999 38.8 29.5999 38.9 29.9999C38.9 30.3999 39 30.6999 39 31.0999C39 31.7999 38.9 32.2999 38.7 32.8999C38.5 33.4999 38.2 33.8999 37.8 34.2999C37.4 34.6999 36.9 34.9999 36.3 35.1999C35.7 35.3999 35 35.4999 34.1 35.4999H33.5V33.8999C33.5 33.7999 33.5 33.6999 33.6 33.5999C33.7 33.4999 33.7 33.3999 33.8 33.3999C33.9 33.2999 34 33.2999 34.1 33.2999C34.2 33.2999 34.3 33.2999 34.3 33.2999C34.8 33.2999 35.2 33.0999 35.4 32.7999C35.6 32.4999 35.8 31.9999 35.8 31.4999C35.8 31.0999 35.8 30.5999 35.7 30.1999C35.6 29.7999 35.6 29.3999 35.6 29.0999C35.6 28.7999 35.5 28.3999 35.5 27.9999C35.5 27.5999 35.4 27.2999 35.4 26.8999C35.4 26.5999 35.4 26.2999 35.5 25.9999C35.6 25.6999 35.7 25.4999 35.9 25.1999C36.1 24.9999 36.3 24.7999 36.5 24.5999C36.7 24.3999 37 24.2999 37.3 24.1999C37 24.0999 36.7 23.9999 36.5 23.7999C36.3 23.5999 36.1 23.3999 35.9 23.1999C35.7 22.9999 35.6 22.6999 35.5 22.3999C35.4 22.0999 35.4 21.7999 35.4 21.4999C35.4 21.0999 35.4 20.7999 35.5 20.3999C35.5 19.9999 35.6 19.6999 35.6 19.2999C35.6 18.8999 35.7 18.5999 35.7 18.1999C35.7 17.7999 35.8 17.3999 35.8 16.8999C35.8 16.2999 35.7 15.8999 35.4 15.5999C35.2 15.2999 34.8 15.0999 34.3 15.0999C34.2 15.0999 34.2 15.0999 34.1 15.0999C34 15.0999 33.9 14.9999 33.8 14.9999C33.7 14.8999 33.7 14.8999 33.6 14.7999C33.5 14.6999 33.5 14.5999 33.5 14.4999V12.8999H34.1C35 12.8999 35.7 12.9999 36.3 13.1999C36.9 13.3999 37.4 13.6999 37.8 14.0999C38.2 14.4999 38.5 14.8999 38.7 15.4999C38.9 15.9999 39 16.5999 39 17.2999C39 17.6999 39 17.9999 38.9 18.3999C38.9 18.7999 38.8 19.0999 38.7 19.4999C38.6 19.8999 38.6 20.1999 38.5 20.5999C38.5 20.9999 38.4 21.2999 38.4 21.6999C38.4 21.8999 38.4 22.1999 38.5 22.2999C38.5 22.4999 38.6 22.6999 38.7 22.7999C38.8 22.8999 38.9 23.0999 39.1 23.0999C39.3 23.1999 39.5 23.1999 39.7 23.1999V24.9999C39.2 24.9999 38.9 25.0999 38.7 25.3999C38.5 25.7999 38.4 26.1999 38.4 26.6999Z" fill="#231F20"/>
</svg>
